<svg width="511" height="511" xmlns="http://www.w3.org/2000/svg">

 <g>
  <title>background</title>
  <rect fill="none" id="canvas_background" height="402" width="582" y="-1" x="-1"/>
 </g>
 <g>
  <title>Layer 1</title>
  <path fill="#666666" transform="rotate(179.97637939453125 255.50328063964844,255.48684692382812) " id="svg_1" d="m439.503281,33.986855l-368,0c-39.425,0 -71.5,31.787975 -71.5,70.860178l0,317.136459c0,21.5851 17.72,39.146532 39.5,39.146532l32,0c10.299,0 19.687,-3.93051 26.726,-10.353514c5.404,15.246335 20.067,26.210337 37.274,26.210337l240,0c17.207,0 31.87,-10.964002 37.274,-26.210337c7.039,6.423004 16.427,10.353514 26.726,10.353514l32,0c21.78,0 39.5,-17.561431 39.5,-39.146532l0,-317.136459c0,-39.072203 -32.075,-70.860178 -71.5,-70.860178zm-84.894,190.281876l-129,-127.845635l18.787,0l129,127.845635l-18.787,0zm-40,0l-129,-127.845635l18.787,0l129,127.845635l-18.787,0zm-40,0l-129,-127.845635l18.787,0l129,127.845635l-18.787,0zm-40,0l-117.803,-116.748832c-1.141,-1.13079 -2.558,-1.815606 -4.036,-2.06436c2.307,-4.540998 6.677,-7.867957 11.89,-8.771796l128.737,127.584989l-18.788,0zm-40,0l-83.606,-82.857846l0,-18.618883l102.394,101.47673l-18.788,0zm-40,0l-43.606,-43.215789l0,-18.618883l62.394,61.834672l-18.788,0zm-43.606,-22.193606l22.394,22.193606l-5.894,0c-9.098,0 -16.5,-7.335763 -16.5,-16.352349l0,-5.841257zm281.138,19.747691l-126.532,-125.39972l18.787,0l115.344,114.311837c-0.826,4.682718 -3.662,8.676655 -7.599,11.087883zm-67.744,-125.39972l75.606,74.929435l0,18.618883l-94.394,-93.548318l18.788,0zm40,0l35.606,35.287377l0,18.618883l-54.394,-53.906261l18.788,0zm21.389,0.175416c7.27,1.004926 13.026,6.709418 14.04,13.914362l-14.04,-13.914362zm-9.783,-15.041188l-8.497,0c-0.002,0 -0.003,0 -0.005,0l-39.995,0c-0.002,0 -0.003,0 -0.005,0l-39.995,0c-0.002,0 -0.003,0 -0.005,0l-39.995,0c-0.002,0 -0.003,0 -0.005,0l-39.995,0c-0.002,0 -0.003,0 -0.005,0l-39.995,0c-0.002,0 -0.003,0 -0.005,0l-32.498,0l0,-32.704697l241,0l0,32.704697zm-304.5,364.706928l-32,0c-13.509,0 -24.5,-10.892646 -24.5,-24.28076l0,-317.136459c0,-30.875216 25.346,-55.994406 56.5,-55.994406l48.5,0l0,33.605563c-13.759,3.344799 -24,15.664559 -24,30.317254l0,31.711664c0,0.000991 0,0.002973 0,0.004955l0,39.637102c0,0.000991 0,0.002973 0,0.004955l0,15.85385l0,7.928411l0,214.06711c0,13.388114 -10.991,24.28076 -24.5,24.28076zm328.5,-8.423937c0,13.388114 -10.991,24.28076 -24.5,24.28076l-240,0c-13.509,0 -24.5,-10.892646 -24.5,-24.28076l0,-7.928411c0,-0.836447 -0.146,-1.637217 -0.403,-2.388434c0.26,-1.810651 0.403,-3.658962 0.403,-5.539978l0,-187.488102c4.802,2.938468 10.454,4.639112 16.5,4.639112l256,0c6.046,0 11.698,-1.700644 16.5,-4.639112l0,187.488102c0,1.881016 0.143,3.729327 0.403,5.539978c-0.257,0.750226 -0.403,1.551987 -0.403,2.388434l0,7.928411zm96,-15.856823c0,13.388114 -10.991,24.28076 -24.5,24.28076l-32,0c-13.509,0 -24.5,-10.892646 -24.5,-24.28076l0,-214.065128c0,-0.000991 0,-0.002973 0,-0.004955l0,-7.925438l0,-31.711664c0,-0.000991 0,-0.002973 0,-0.004955l0,-39.637102c0,-0.000991 0,-0.002973 0,-0.004955l0,-15.85385c0,-14.652695 -10.241,-26.972456 -24,-30.317254l0,-33.605563l48.5,0c31.154,0 56.5,25.11919 56.5,55.994406l0,317.136459z"/>
  <g id="svg_2"/>
  <g id="svg_3"/>
  <g id="svg_4"/>
  <g id="svg_5"/>
  <g id="svg_6"/>
  <g id="svg_7"/>
  <g id="svg_8"/>
  <g id="svg_9"/>
  <g id="svg_10"/>
  <g id="svg_11"/>
  <g id="svg_12"/>
  <g id="svg_13"/>
  <g id="svg_14"/>
  <g id="svg_15"/>
  <g id="svg_16"/>
 </g>
</svg>